HIERARCHY
ROOT Hips
{
	OFFSET 0.000000 0.000000 0.000000
	CHANNELS 6 Xposition Yposition Zposition Zrotation Yrotation Xrotation 
	JOINT LowerBack
	{
		OFFSET 0.000000 0.000000 0.000000
		CHANNELS 3 Zrotation Yrotation Xrotation
		JOINT Spine
		{
			OFFSET 0.028270 2.035590 -0.193380
			CHANNELS 3 Zrotation Yrotation Xrotation
			JOINT Spine1
			{
				OFFSET 0.056720 2.048850 -0.042750
				CHANNELS 3 Zrotation Yrotation Xrotation
				JOINT Neck
				{
					OFFSET 0.000000 0.000000 0.000000
					CHANNELS 3 Zrotation Yrotation Xrotation
					JOINT Neck1
					{
						OFFSET -0.054170 1.746240 0.172020
						CHANNELS 3 Zrotation Yrotation Xrotation
						JOINT Head
						{
							OFFSET 0.104070 1.761360 -0.123970
							CHANNELS 3 Zrotation Yrotation Xrotation
							End Site
							{
								OFFSET 0.000000 0.000000 0.000000
							}
						}
					}
				}
				JOINT LeftShoulder
				{
					OFFSET 0.000000 0.000000 0.000000
					CHANNELS 3 Zrotation Yrotation Xrotation
					JOINT LeftArm
					{
						OFFSET 3.362410 1.200890 -0.311210
						CHANNELS 3 Zrotation Yrotation Xrotation
						JOINT LeftForeArm
						{
							OFFSET 4.983000 -0.000000 -0.000000
							CHANNELS 3 Zrotation Yrotation Xrotation
							JOINT LeftHand
							{
								OFFSET 3.483560 -0.000000 -0.000000
								CHANNELS 3 Zrotation Yrotation Xrotation
								JOINT LeftFingerBase
								{
									OFFSET 0.000000 0.000000 0.000000
									CHANNELS 3 Zrotation Yrotation Xrotation
									JOINT LeftHandIndex1
									{
										OFFSET 0.715260 -0.000000 -0.000000
										CHANNELS 3 Zrotation Yrotation Xrotation
										End Site
										{
											OFFSET 0.000000 0.000000 0.000000
										}
									}
								}
								JOINT LThumb
								{
									OFFSET 0.000000 0.000000 0.000000
									CHANNELS 3 Zrotation Yrotation Xrotation
									End Site
									{
										OFFSET 0.000000 0.000000 0.000000
									}
								}
							}
						}
					}
				}
				JOINT RightShoulder
				{
					OFFSET 0.000000 0.000000 0.000000
					CHANNELS 3 Zrotation Yrotation Xrotation
					JOINT RightArm
					{
						OFFSET -3.136600 1.374050 -0.404650
						CHANNELS 3 Zrotation Yrotation Xrotation
						JOINT RightForeArm
						{
							OFFSET -5.241900 -0.000000 -0.000000
							CHANNELS 3 Zrotation Yrotation Xrotation
							JOINT RightHand
							{
								OFFSET -3.444170 -0.000000 -0.000000
								CHANNELS 3 Zrotation Yrotation Xrotation
								JOINT RightFingerBase
								{
									OFFSET 0.000000 0.000000 0.000000
									CHANNELS 3 Zrotation Yrotation Xrotation
									JOINT RightHandIndex1
									{
										OFFSET -0.622530 -0.000000 -0.000000
										CHANNELS 3 Zrotation Yrotation Xrotation
										End Site
										{
											OFFSET 0.000000 0.000000 0.000000
										}
									}
								}
								JOINT RThumb
								{
									OFFSET 0.000000 0.000000 0.000000
									CHANNELS 3 Zrotation Yrotation Xrotation
									End Site
									{
										OFFSET 0.000000 0.000000 0.000000
									}
								}
							}
						}
					}
				}
			}
		}
	}
}
}
MOTION
Frames: 14
Frame Time: 0.008333
-21.378600 16.196270 -0.829229 12.604955 85.922506 37.821209 -9.055028 0.250618 1.310141 -2.767907 0.679972 -2.711022 -6.403515 0.584789 0.799983 8.688411 -1.135040 -4.603248 -3.378499 -0.282399 0.584358 0.000000 0.000000 0.000000 -5.635788 10.443921 2.103848 -55.134817 21.547267 15.575024 -3.838522 -29.606971 -0.016404 -4.459340 4.011576 -0.158038 -0.091338 -0.125574 -0.000000 0.000000 0.000000 0.000000 0.000000 0.000000 0.000000 14.348120 2.400061 1.367694 49.913274 21.639666 11.726036 1.974147 52.871889 0.018627 3.488849 7.080218 0.222013 0.027270 -0.229480 0.000000 0.000000 0.000000 0.000000 0.000000 0.000000 0.000000 
-21.180864 16.209661 -0.853008 14.797727 86.032432 39.815067 -9.277014 0.222649 1.459474 -2.830599 0.660852 -2.692796 -6.467550 0.566545 0.767496 8.835670 -1.063691 -4.563383 -3.420362 -0.285470 0.589552 0.000000 0.000000 0.000000 -5.625575 10.293353 2.138346 -55.160047 20.916121 15.426254 -3.867571 -29.204222 -0.016469 -4.523869 4.074448 -0.162637 -0.091979 -0.122792 -0.000000 0.000000 0.000000 0.000000 0.000000 0.000000 0.000000 14.631749 2.451149 1.342759 50.537913 21.258396 11.678230 1.990681 52.514468 0.018412 3.424360 7.121324 0.219018 0.027974 -0.228172 0.000000 0.000000 0.000000 0.000000 0.000000 0.000000 0.000000 
-20.984396 16.226037 -0.876866 17.071524 86.147882 41.860191 -9.467093 0.193232 1.640212 -2.886774 0.638043 -2.669342 -6.529910 0.544878 0.730850 8.968059 -0.984166 -4.517364 -3.462241 -0.288538 0.596092 0.000000 0.000000 0.000000 -5.615056 10.112296 2.175744 -55.184413 20.237389 15.384683 -3.893696 -28.847704 -0.016558 -4.614435 4.142067 -0.168535 -0.092457 -0.119762 -0.000000 0.000000 0.000000 0.000000 0.000000 0.000000 0.000000 14.900510 2.504511 1.319702 51.188650 20.866099 11.661294 2.008943 52.104753 0.018211 3.380707 7.155212 0.217121 0.028412 -0.226383 0.000000 0.000000 0.000000 0.000000 0.000000 0.000000 0.000000 
-20.789991 16.245126 -0.901021 19.352299 86.265699 43.886327 -9.619051 0.163621 1.847264 -2.934745 0.612586 -2.641765 -6.590561 0.520672 0.689553 9.085179 -0.898443 -4.463884 -3.504036 -0.291620 0.604542 0.000000 0.000000 0.000000 -5.610176 9.892953 2.214902 -55.205892 19.527739 15.440010 -3.916207 -28.553575 -0.016660 -4.725650 4.215568 -0.175532 -0.092786 -0.116549 -0.000000 0.000000 0.000000 0.000000 0.000000 0.000000 0.000000 15.154245 2.557640 1.300161 51.853504 20.470038 11.679797 2.029240 51.643195 0.018035 3.359411 7.182676 0.216421 0.028609 -0.224119 0.000000 0.000000 0.000000 0.000000 0.000000 0.000000 0.000000 
-20.597859 16.266526 -0.926028 21.442177 86.385208 45.704609 -9.718284 0.135685 2.069961 -2.970677 0.585908 -2.611931 -6.648736 0.495176 0.644766 9.183732 -0.806359 -4.403228 -3.545294 -0.294690 0.615222 0.000000 0.000000 0.000000 -5.618320 9.639530 2.254918 -55.227166 18.788530 15.579368 -3.934676 -28.325491 -0.016757 -4.850170 4.292049 -0.183227 -0.093021 -0.113155 -0.000000 0.000000 0.000000 0.000000 0.000000 0.000000 0.000000 15.386805 2.611061 1.284492 52.521531 20.072733 11.731331 2.051814 51.133746 0.017899 3.367133 7.202440 0.217420 0.028526 -0.221354 0.000000 0.000000 0.000000 0.000000 0.000000 0.000000 0.000000 
-20.408308 16.290251 -0.950670 23.686048 86.506108 47.659909 -9.789203 0.104359 2.312103 -2.999621 0.554357 -2.576513 -6.702410 0.465025 0.604831 9.271615 -0.708121 -4.343014 -3.584247 -0.297490 0.625478 0.000000 0.000000 0.000000 -5.612485 9.400992 2.297542 -55.242653 17.941420 15.870798 -3.948666 -28.127454 -0.016754 -4.962830 4.361159 -0.190318 -0.093191 -0.109332 -0.000000 0.000000 0.000000 0.000000 0.000000 0.000000 0.000000 15.599764 2.664076 1.266574 53.204145 19.676667 11.800822 2.074562 50.577132 0.017773 3.397783 7.220591 0.219916 0.028069 -0.218204 0.000000 0.000000 0.000000 0.000000 0.000000 0.000000 0.000000 
-20.221383 16.316087 -0.976075 25.719268 86.630579 49.404023 -9.805743 0.073483 2.553742 -3.015806 0.520860 -2.541543 -6.754278 0.432625 0.563007 9.346494 -0.612421 -4.277322 -3.622563 -0.300274 0.637844 0.000000 0.000000 0.000000 -5.621902 9.124959 2.339462 -55.252984 17.077632 16.216139 -3.957858 -28.012696 -0.016701 -5.068455 4.427604 -0.197207 -0.093323 -0.105375 -0.000000 0.000000 0.000000 0.000000 0.000000 0.000000 0.000000 15.798220 2.707017 1.253644 53.876214 19.287068 11.899727 2.100044 49.975700 0.017684 3.452489 7.234182 0.223810 0.027473 -0.214614 0.000000 0.000000 0.000000 0.000000 0.000000 0.000000 0.000000 
-20.036836 16.344206 -1.001685 27.674124 86.758666 51.075183 -9.778700 0.040880 2.790690 -3.021683 0.483985 -2.506866 -6.804211 0.396599 0.522532 9.413658 -0.520466 -4.209733 -3.659714 -0.302954 0.651203 0.000000 0.000000 0.000000 -5.635854 8.830587 2.381170 -55.253743 16.169943 16.626023 -3.962183 -27.969785 -0.016548 -5.151284 4.484074 -0.202791 -0.093454 -0.101196 -0.000000 0.000000 0.000000 0.000000 0.000000 0.000000 0.000000 15.985566 2.738679 1.243281 54.542112 18.901354 12.014130 2.127438 49.331040 0.017613 3.525275 7.245637 0.228803 0.026754 -0.210660 0.000000 0.000000 0.000000 0.000000 0.000000 0.000000 0.000000 
-19.854874 16.374787 -1.027259 29.559898 86.889251 52.690963 -9.712127 0.006098 3.015406 -3.018295 0.443659 -2.473124 -6.852583 0.356908 0.486548 9.476719 -0.438436 -4.144549 -3.695648 -0.305482 0.664430 0.000000 0.000000 0.000000 -5.650830 8.531593 2.422078 -55.242207 15.201923 17.090926 -3.961908 -27.991180 -0.016270 -5.200775 4.523710 -0.206271 -0.093638 -0.096753 -0.000000 0.000000 0.000000 0.000000 0.000000 0.000000 0.000000 16.166112 2.753162 1.234390 55.200884 18.522668 12.136165 2.156648 48.642594 0.017545 3.609125 7.256906 0.234595 0.026000 -0.206391 0.000000 0.000000 0.000000 0.000000 0.000000 0.000000 0.000000 
-19.674953 16.408107 -1.052549 31.374195 87.020473 54.255815 -9.609982 -0.030650 3.220733 -3.006774 0.400376 -2.442004 -6.900496 0.313949 0.454031 9.538593 -0.366942 -4.081886 -3.730617 -0.307888 0.677586 0.000000 0.000000 0.000000 -5.667303 8.225120 2.461916 -55.213450 14.183457 17.584810 -3.957525 -28.081822 -0.015867 -5.210975 4.542879 -0.207345 -0.093923 -0.092082 -0.000000 0.000000 0.000000 0.000000 0.000000 0.000000 0.000000 16.343492 2.750545 1.227062 55.854570 18.143158 12.252000 2.187508 47.911447 0.017467 3.696331 7.268323 0.240486 0.025302 -0.201874 0.000000 0.000000 0.000000 0.000000 0.000000 0.000000 0.000000 
-19.497159 16.444545 -1.077249 33.119441 87.148441 55.776772 -9.478707 -0.068197 3.400065 -2.989012 0.355570 -2.417542 -6.950607 0.268730 0.414715 9.602196 -0.298203 -4.012185 -3.765541 -0.310383 0.693466 0.000000 0.000000 0.000000 -5.692161 7.863436 2.501079 -55.159884 13.190974 18.040261 -3.949071 -28.281047 -0.015376 -5.183354 4.545962 -0.206117 -0.094280 -0.087399 -0.000000 0.000000 0.000000 0.000000 0.000000 0.000000 0.000000 16.522426 2.739318 1.225245 56.506403 17.736378 12.337745 2.220079 47.144447 0.017378 3.784046 7.276488 0.246377 0.024711 -0.197209 0.000000 0.000000 0.000000 0.000000 0.000000 0.000000 0.000000 
-19.320887 16.484279 -1.101217 34.758830 87.270676 57.220739 -9.323311 -0.107314 3.551880 -2.965726 0.308806 -2.395091 -7.000456 0.221519 0.386985 9.668772 -0.252373 -3.955941 -3.799333 -0.312623 0.706196 0.000000 0.000000 0.000000 -5.709658 7.537050 2.538015 -55.085289 12.097413 18.514521 -3.938428 -28.516210 -0.014745 -5.108194 4.515500 -0.201380 -0.094890 -0.082368 -0.000000 0.000000 0.000000 0.000000 0.000000 0.000000 0.000000 16.703763 2.700704 1.221198 57.156479 17.336771 12.400551 2.253439 46.329644 0.017242 3.855682 7.286208 0.251270 0.024339 -0.192389 0.000000 0.000000 0.000000 0.000000 0.000000 0.000000 0.000000 
-19.146012 16.527541 -1.124286 36.259666 87.383627 58.554456 -9.148579 -0.146476 3.672974 -2.938187 0.261725 -2.378349 -7.052124 0.173543 0.359234 9.738202 -0.217792 -3.901669 -3.832573 -0.314816 0.719098 0.000000 0.000000 0.000000 -5.727856 7.195198 2.573462 -54.984159 10.985797 18.940778 -3.925916 -28.825917 -0.014026 -4.993963 4.457958 -0.194041 -0.095722 -0.077217 -0.000000 0.000000 0.000000 0.000000 0.000000 0.000000 0.000000 16.886800 2.647518 1.218782 57.810121 16.912937 12.415568 2.287374 45.475244 0.017061 3.910145 7.293389 0.254862 0.024190 -0.187506 0.000000 0.000000 0.000000 0.000000 0.000000 0.000000 0.000000 
-18.972218 16.574353 -1.146377 37.575300 87.483755 59.729007 -8.958743 -0.185142 3.763387 -2.907153 0.215016 -2.367259 -7.105392 0.125546 0.331431 9.809540 -0.194870 -3.849625 -3.864966 -0.316951 0.732097 0.000000 0.000000 0.000000 -5.745681 6.840881 2.607297 -54.856945 9.861606 19.301762 -3.912350 -29.206027 -0.013242 -4.846689 4.372524 -0.184398 -0.096805 -0.071965 -0.000000 0.000000 0.000000 0.000000 0.000000 0.000000 0.000000 17.069130 2.580560 1.217437 58.469779 16.460652 12.373832 2.321387 44.582996 0.016830 3.942850 7.296595 0.256954 0.024279 -0.182600 0.000000 0.000000 0.000000 0.000000 0.000000 0.000000 0.000000 
